<svg width="20" height="20" viewBox="0 0 20 20" fill="none" xmlns="http://www.w3.org/2000/svg">
<path d="M10 12.25L9.34382 13.0046C9.72009 13.3318 10.2799 13.3318 10.6562 13.0046L10 12.25ZM5.21068 13.111C5.74196 12.9602 6.05034 12.4072 5.89946 11.8759C5.74859 11.3446 5.1956 11.0362 4.66432 11.1871L4.9375 12.1491L5.21068 13.111ZM15.3357 11.1871C14.8044 11.0362 14.2514 11.3446 14.1005 11.8759C13.9497 12.4072 14.258 12.9602 14.7893 13.111L15.0625 12.1491L15.3357 11.1871ZM14.5 5.40217H13.5C13.5 5.89783 13.3034 6.52102 12.9174 7.23431C12.5386 7.9342 12.021 8.64173 11.4829 9.28507C10.9476 9.92509 10.4095 10.4811 10.0038 10.8779C9.80163 11.0757 9.63386 11.2325 9.51784 11.3388C9.45987 11.3919 9.41492 11.4323 9.38517 11.4588C9.3703 11.4721 9.35923 11.4819 9.35225 11.488C9.34876 11.4911 9.34628 11.4932 9.34487 11.4945C9.34416 11.4951 9.34372 11.4955 9.34354 11.4956C9.34345 11.4957 9.34343 11.4957 9.34348 11.4957C9.3435 11.4957 9.34359 11.4956 9.3436 11.4956C9.3437 11.4955 9.34382 11.4954 10 12.25C10.6562 13.0046 10.6563 13.0045 10.6565 13.0043C10.6566 13.0043 10.6568 13.0041 10.6569 13.0039C10.6573 13.0037 10.6576 13.0033 10.6581 13.0029C10.659 13.0021 10.6602 13.0011 10.6617 12.9998C10.6646 12.9973 10.6686 12.9938 10.6736 12.9894C10.6836 12.9805 10.6978 12.968 10.7159 12.9519C10.7521 12.9196 10.8038 12.8731 10.8689 12.8135C10.999 12.6943 11.1828 12.5225 11.4024 12.3076C11.8405 11.879 12.4274 11.2733 13.0171 10.5682C13.604 9.86642 14.2114 9.04541 14.6763 8.18621C15.1341 7.34039 15.5 6.37391 15.5 5.40217H14.5ZM10 12.25C10.6562 11.4954 10.6563 11.4955 10.6564 11.4956C10.6564 11.4956 10.6565 11.4957 10.6565 11.4957C10.6566 11.4957 10.6566 11.4957 10.6565 11.4956C10.6563 11.4955 10.6558 11.4951 10.6551 11.4945C10.6537 11.4932 10.6512 11.4911 10.6478 11.488C10.6408 11.4819 10.6297 11.4721 10.6148 11.4588C10.5851 11.4323 10.5401 11.3919 10.4822 11.3388C10.3661 11.2325 10.1984 11.0757 9.99617 10.8779C9.59054 10.4811 9.05237 9.92509 8.51708 9.28507C7.97901 8.64173 7.46137 7.9342 7.0826 7.23431C6.69659 6.52102 6.5 5.89783 6.5 5.40217H5.5H4.5C4.5 6.37391 4.86592 7.34039 5.32365 8.18621C5.78864 9.04541 6.39599 9.86642 6.98292 10.5682C7.57264 11.2733 8.15946 11.879 8.59758 12.3076C8.81725 12.5225 9.00105 12.6943 9.13113 12.8135C9.1962 12.8731 9.24793 12.9196 9.28409 12.9519C9.30218 12.968 9.31639 12.9805 9.32643 12.9894C9.33145 12.9938 9.33544 12.9973 9.33835 12.9998C9.3398 13.0011 9.34099 13.0021 9.3419 13.0029C9.34236 13.0033 9.34275 13.0037 9.34307 13.0039C9.34323 13.0041 9.34342 13.0043 9.3435 13.0043C9.34367 13.0045 9.34382 13.0046 10 12.25ZM5.5 5.40217H6.5C6.5 3.54381 8.04617 2 10 2V1V0C6.98327 0 4.5 2.39803 4.5 5.40217H5.5ZM10 1V2C11.9538 2 13.5 3.54381 13.5 5.40217H14.5H15.5C15.5 2.39803 13.0167 0 10 0V1ZM19 15.25H18C18 15.4194 17.9218 15.6713 17.591 15.9973C17.2565 16.3267 16.7214 16.6694 15.9793 16.9786C14.4997 17.5951 12.3863 18 10 18V19V20C12.5843 20 14.9709 19.5654 16.7486 18.8247C17.6352 18.4553 18.4181 17.9899 18.9945 17.4221C19.5745 16.8507 20 16.1161 20 15.25H19ZM10 19V18C7.61375 18 5.50031 17.5951 4.02065 16.9786C3.27864 16.6694 2.74345 16.3267 2.40905 15.9973C2.07817 15.6713 2 15.4194 2 15.25H1H0C0 16.1161 0.425512 16.8507 1.00548 17.4221C1.58193 17.9899 2.36476 18.4553 3.25142 18.8247C5.02913 19.5654 7.41569 20 10 20V19ZM1 15.25H2C2 15.042 2.12503 14.6952 2.68792 14.2613C3.24078 13.8352 4.09533 13.4278 5.21068 13.111L4.9375 12.1491L4.66432 11.1871C3.4028 11.5454 2.2886 12.0439 1.46693 12.6773C0.655286 13.3029 0 14.1691 0 15.25H1ZM15.0625 12.1491L14.7893 13.111C15.9047 13.4278 16.7592 13.8352 17.3121 14.2613C17.875 14.6952 18 15.042 18 15.25H19H20C20 14.1691 19.3447 13.3029 18.5331 12.6773C17.7114 12.0439 16.5972 11.5454 15.3357 11.1871L15.0625 12.1491Z" fill="#2B2B2B"/>
</svg>
